<?xml version="1.0" encoding="UTF-8"?>
<mxfile host="app.diagrams.net" modified="2024-03-10T16:30:00.000Z" agent="Mozilla/5.0" version="21.1.8" type="device">
  <diagram id="sequence-diagram" name="System Sequence Diagram">
    <mxGraphModel dx="1422" dy="798" grid="1" gridSize="10" guides="1" tooltips="1" connect="1" arrows="1" fold="1" page="1" pageScale="1" pageWidth="1169" pageHeight="827" math="0" shadow="0">
      <root>
        <mxCell id="0" />
        <mxCell id="1" parent="0" />
        
        <!-- Actors -->
        <mxCell id="user" value="User" style="shape=umlActor;verticalLabelPosition=bottom;verticalAlign=top;html=1;" vertex="1" parent="1">
          <mxGeometry x="40" y="40" width="30" height="60" as="geometry" />
        </mxCell>
        <mxCell id="admin" value="Admin" style="shape=umlActor;verticalLabelPosition=bottom;verticalAlign=top;html=1;" vertex="1" parent="1">
          <mxGeometry x="120" y="40" width="30" height="60" as="geometry" />
        </mxCell>
        <mxCell id="moderator" value="Moderator" style="shape=umlActor;verticalLabelPosition=bottom;verticalAlign=top;html=1;" vertex="1" parent="1">
          <mxGeometry x="200" y="40" width="30" height="60" as="geometry" />
        </mxCell>
        <mxCell id="system" value="System" style="rounded=0;whiteSpace=wrap;html=1;" vertex="1" parent="1">
          <mxGeometry x="320" y="40" width="120" height="60" as="geometry" />
        </mxCell>
        <mxCell id="database" value="Database" style="shape=cylinder3;whiteSpace=wrap;html=1;boundedLbl=1;size=15;" vertex="1" parent="1">
          <mxGeometry x="480" y="40" width="60" height="80" as="geometry" />
        </mxCell>

        <!-- Lifelines -->
        <mxCell id="user-lifeline" value="" style="endArrow=none;dashed=1;html=1;rounded=0;" edge="1" parent="1">
          <mxGeometry width="50" height="50" relative="1" as="geometry">
            <mxPoint x="55" y="120" as="sourcePoint" />
            <mxPoint x="55" y="760" as="targetPoint" />
          </mxGeometry>
        </mxCell>
        <mxCell id="admin-lifeline" value="" style="endArrow=none;dashed=1;html=1;rounded=0;" edge="1" parent="1">
          <mxGeometry width="50" height="50" relative="1" as="geometry">
            <mxPoint x="135" y="120" as="sourcePoint" />
            <mxPoint x="135" y="760" as="targetPoint" />
          </mxGeometry>
        </mxCell>
        <mxCell id="moderator-lifeline" value="" style="endArrow=none;dashed=1;html=1;rounded=0;" edge="1" parent="1">
          <mxGeometry width="50" height="50" relative="1" as="geometry">
            <mxPoint x="215" y="120" as="sourcePoint" />
            <mxPoint x="215" y="760" as="targetPoint" />
          </mxGeometry>
        </mxCell>
        <mxCell id="system-lifeline" value="" style="endArrow=none;dashed=1;html=1;rounded=0;" edge="1" parent="1">
          <mxGeometry width="50" height="50" relative="1" as="geometry">
            <mxPoint x="380" y="120" as="sourcePoint" />
            <mxPoint x="380" y="760" as="targetPoint" />
          </mxGeometry>
        </mxCell>
        <mxCell id="database-lifeline" value="" style="endArrow=none;dashed=1;html=1;rounded=0;" edge="1" parent="1">
          <mxGeometry width="50" height="50" relative="1" as="geometry">
            <mxPoint x="510" y="120" as="sourcePoint" />
            <mxPoint x="510" y="760" as="targetPoint" />
          </mxGeometry>
        </mxCell>

        <!-- User Interactions -->
        <mxCell id="user-create-post-title" value="Create Post" style="text;html=1;strokeColor=none;fillColor=none;align=center;verticalAlign=middle;whiteSpace=wrap;rounded=0;fontStyle=1" vertex="1" parent="1">
          <mxGeometry x="40" y="140" width="100" height="30" as="geometry" />
        </mxCell>
        <mxCell id="user-create-post-1" value="Create Post Request" style="endArrow=block;html=1;rounded=0;endFill=1;" edge="1" parent="1">
          <mxGeometry width="50" height="50" relative="1" as="geometry">
            <mxPoint x="55" y="180" as="sourcePoint" />
            <mxPoint x="380" y="180" as="targetPoint" />
          </mxGeometry>
        </mxCell>
        <mxCell id="user-create-post-2" value="Validate Input" style="endArrow=block;html=1;rounded=0;endFill=1;" edge="1" parent="1">
          <mxGeometry width="50" height="50" relative="1" as="geometry">
            <mxPoint x="380" y="200" as="sourcePoint" />
            <mxPoint x="380" y="220" as="targetPoint" />
            <Array as="points">
              <mxPoint x="420" y="200" />
              <mxPoint x="420" y="220" />
            </Array>
          </mxGeometry>
        </mxCell>
        <mxCell id="user-create-post-3" value="Save Post" style="endArrow=block;html=1;rounded=0;endFill=1;" edge="1" parent="1">
          <mxGeometry width="50" height="50" relative="1" as="geometry">
            <mxPoint x="380" y="240" as="sourcePoint" />
            <mxPoint x="510" y="240" as="targetPoint" />
          </mxGeometry>
        </mxCell>
        <mxCell id="user-create-post-4" value="Return Success" style="endArrow=block;html=1;rounded=0;endFill=1;dashed=1;" edge="1" parent="1">
          <mxGeometry width="50" height="50" relative="1" as="geometry">
            <mxPoint x="380" y="280" as="sourcePoint" />
            <mxPoint x="55" y="280" as="targetPoint" />
          </mxGeometry>
        </mxCell>

        <!-- Admin Interactions -->
        <mxCell id="admin-generate-report-title" value="Generate Report" style="text;html=1;strokeColor=none;fillColor=none;align=center;verticalAlign=middle;whiteSpace=wrap;rounded=0;fontStyle=1" vertex="1" parent="1">
          <mxGeometry x="120" y="320" width="100" height="30" as="geometry" />
        </mxCell>
        <mxCell id="admin-generate-report-1" value="Generate Report Request" style="endArrow=block;html=1;rounded=0;endFill=1;" edge="1" parent="1">
          <mxGeometry width="50" height="50" relative="1" as="geometry">
            <mxPoint x="135" y="360" as="sourcePoint" />
            <mxPoint x="380" y="360" as="targetPoint" />
          </mxGeometry>
        </mxCell>
        <mxCell id="admin-generate-report-2" value="Validate Parameters" style="endArrow=block;html=1;rounded=0;endFill=1;" edge="1" parent="1">
          <mxGeometry width="50" height="50" relative="1" as="geometry">
            <mxPoint x="380" y="380" as="sourcePoint" />
            <mxPoint x="380" y="400" as="targetPoint" />
            <Array as="points">
              <mxPoint x="420" y="380" />
              <mxPoint x="420" y="400" />
            </Array>
          </mxGeometry>
        </mxCell>
        <mxCell id="admin-generate-report-3" value="Query Posts" style="endArrow=block;html=1;rounded=0;endFill=1;" edge="1" parent="1">
          <mxGeometry width="50" height="50" relative="1" as="geometry">
            <mxPoint x="380" y="420" as="sourcePoint" />
            <mxPoint x="510" y="420" as="targetPoint" />
          </mxGeometry>
        </mxCell>
        <mxCell id="admin-generate-report-4" value="Return Posts" style="endArrow=block;html=1;rounded=0;endFill=1;dashed=1;" edge="1" parent="1">
          <mxGeometry width="50" height="50" relative="1" as="geometry">
            <mxPoint x="510" y="440" as="sourcePoint" />
            <mxPoint x="380" y="440" as="targetPoint" />
          </mxGeometry>
        </mxCell>
        <mxCell id="admin-generate-report-5" value="Generate CSV" style="endArrow=block;html=1;rounded=0;endFill=1;" edge="1" parent="1">
          <mxGeometry width="50" height="50" relative="1" as="geometry">
            <mxPoint x="380" y="460" as="sourcePoint" />
            <mxPoint x="380" y="480" as="targetPoint" />
            <Array as="points">
              <mxPoint x="420" y="460" />
              <mxPoint x="420" y="480" />
            </Array>
          </mxGeometry>
        </mxCell>
        <mxCell id="admin-generate-report-6" value="Save Report" style="endArrow=block;html=1;rounded=0;endFill=1;" edge="1" parent="1">
          <mxGeometry width="50" height="50" relative="1" as="geometry">
            <mxPoint x="380" y="500" as="sourcePoint" />
            <mxPoint x="510" y="500" as="targetPoint" />
          </mxGeometry>
        </mxCell>
        <mxCell id="admin-generate-report-7" value="Return Report" style="endArrow=block;html=1;rounded=0;endFill=1;dashed=1;" edge="1" parent="1">
          <mxGeometry width="50" height="50" relative="1" as="geometry">
            <mxPoint x="380" y="540" as="sourcePoint" />
            <mxPoint x="135" y="540" as="targetPoint" />
          </mxGeometry>
        </mxCell>

        <!-- Moderator Interactions -->
        <mxCell id="moderator-moderate-title" value="Moderate Post" style="text;html=1;strokeColor=none;fillColor=none;align=center;verticalAlign=middle;whiteSpace=wrap;rounded=0;fontStyle=1" vertex="1" parent="1">
          <mxGeometry x="200" y="580" width="100" height="30" as="geometry" />
        </mxCell>
        <mxCell id="moderator-moderate-1" value="Review Post Request" style="endArrow=block;html=1;rounded=0;endFill=1;" edge="1" parent="1">
          <mxGeometry width="50" height="50" relative="1" as="geometry">
            <mxPoint x="215" y="620" as="sourcePoint" />
            <mxPoint x="380" y="620" as="targetPoint" />
          </mxGeometry>
        </mxCell>
        <mxCell id="moderator-moderate-2" value="Validate Post" style="endArrow=block;html=1;rounded=0;endFill=1;" edge="1" parent="1">
          <mxGeometry width="50" height="50" relative="1" as="geometry">
            <mxPoint x="380" y="640" as="sourcePoint" />
            <mxPoint x="380" y="660" as="targetPoint" />
            <Array as="points">
              <mxPoint x="420" y="640" />
              <mxPoint x="420" y="660" />
            </Array>
          </mxGeometry>
        </mxCell>
        <mxCell id="moderator-moderate-3" value="Update Status" style="endArrow=block;html=1;rounded=0;endFill=1;" edge="1" parent="1">
          <mxGeometry width="50" height="50" relative="1" as="geometry">
            <mxPoint x="380" y="680" as="sourcePoint" />
            <mxPoint x="510" y="680" as="targetPoint" />
          </mxGeometry>
        </mxCell>
        <mxCell id="moderator-moderate-4" value="Return Success" style="endArrow=block;html=1;rounded=0;endFill=1;dashed=1;" edge="1" parent="1">
          <mxGeometry width="50" height="50" relative="1" as="geometry">
            <mxPoint x="380" y="720" as="sourcePoint" />
            <mxPoint x="215" y="720" as="targetPoint" />
          </mxGeometry>
        </mxCell>
      </root>
    </mxGraphModel>
  </diagram>
</mxfile> 